<svg id="elMhEtG2zkm1" xmlns="http://www.w3.org/2000/svg" xmlns:xlink="http://www.w3.org/1999/xlink" viewBox="0 0 1000 940" shape-rendering="geometricPrecision" text-rendering="geometricPrecision"><g clip-rule="evenodd"><path d="" clip-rule="evenodd" fill="#40bdb8" fill-rule="evenodd" stroke="#41bdb8" stroke-width="2.58825" stroke-miterlimit="10"/><path d="" clip-rule="evenodd" fill="#40bdb8" fill-rule="evenodd" stroke="#41bdb8" stroke-width="2.58825" stroke-miterlimit="10"/><g clip-rule="evenodd"><path d="M345.533,595.826c0-36.695,28.967-66.441,64.699-66.441s64.699,29.746,64.699,66.441c0,36.694-28.967,66.44-64.699,66.44s-64.699-29.746-64.699-66.44Z" clip-rule="evenodd" fill="#fff" fill-rule="evenodd" stroke-linecap="round" stroke-linejoin="round" stroke-miterlimit="10"/><path d="M405.781,529.156c-26.654,1.819-49.348,20.468-57.437,45.75-1.465,4.579-.013-.013-3.282,20.906-.003.252.218.465.469.469.018.001.015-.029.031-.031.013.52.107,4.268.313,6.375.429,4.391,1.257,8.745,2.531,12.969.103.342.267.66.375,1-1.424-4.441-3.106-19.646-3.187-20.375.203-.043.403-.159.406-.375.329-6.756.092-4.545.312-6.782.43-4.36,1.295-8.681,2.563-12.874c5.289-17.494,17.89-32.487,34.437-40.344c6.736-3.198,14.014-5.148,21.438-5.813c6.867-.615,13.833-.11,20.531,1.531c5.447,1.336,10.723,3.403,15.625,6.126c15.449,8.581,26.875,23.5,31.469,40.531c2.709,10.043,3.05,20.766,1.031,30.969-4.869,24.613-23.555,45.078-48.062,51.124-6.363,1.57-12.993,2.138-19.532,1.688-22.999-1.582-42.999-15.772-53.124-35.938c6.517,13.021,17.168,23.899,30.406,30.188c6.788,3.225,14.11,5.209,21.594,5.875c6.92.616,13.967.086,20.718-1.563c5.492-1.341,10.811-3.44,15.75-6.187c15.557-8.654,27.062-23.687,31.688-40.844c2.727-10.115,3.064-20.882,1.031-31.156-4.902-24.778-23.75-45.432-48.437-51.5-6.413-1.576-13.068-2.168-19.657-1.719Zm-53.093,96.906c-.144-.287-.267-.585-.407-.874.141.29.262.587.407.874Zm-.407-.874c-1.338-2.765-2.549-5.628-3.5-8.594.946,2.959,2.154,5.805,3.5,8.594Z" clip-rule="evenodd" fill="#d7556c" stroke-linecap="round" stroke-linejoin="round" stroke-miterlimit="10"/></g><g clip-rule="evenodd"><g clip-rule="evenodd"><path d="M345.533,595.826c0-36.695,28.967-66.441,64.699-66.441s64.699,29.746,64.699,66.441c0,36.694-28.967,66.44-64.699,66.44s-64.699-29.746-64.699-66.44Z" clip-rule="evenodd" fill="#fff" fill-rule="evenodd" stroke-linecap="round" stroke-linejoin="round" stroke-miterlimit="10"/><path d="M405.781,529.156c-26.654,1.819-49.348,20.468-57.437,45.75-1.465,4.579-.013-.013-3.282,20.906-.003.252.218.465.469.469.018.001.015-.029.031-.031.013.52.107,4.268.313,6.375.429,4.391,1.257,8.745,2.531,12.969.103.342.267.66.375,1-1.424-4.441-3.106-19.646-3.187-20.375.203-.043.403-.159.406-.375.329-6.756.092-4.545.312-6.782.43-4.36,1.295-8.681,2.563-12.874c5.289-17.494,17.89-32.487,34.437-40.344c6.736-3.198,14.014-5.148,21.438-5.813c6.867-.615,13.833-.11,20.531,1.531c5.447,1.336,10.723,3.403,15.625,6.126c15.449,8.581,26.875,23.5,31.469,40.531c2.709,10.043,3.05,20.766,1.031,30.969-4.869,24.613-23.555,45.078-48.062,51.124-6.363,1.57-12.993,2.138-19.532,1.688-22.999-1.582-42.999-15.772-53.124-35.938c6.517,13.021,17.168,23.899,30.406,30.188c6.788,3.225,14.11,5.209,21.594,5.875c6.92.616,13.967.086,20.718-1.563c5.492-1.341,10.811-3.44,15.75-6.187c15.557-8.654,27.062-23.687,31.688-40.844c2.727-10.115,3.064-20.882,1.031-31.156-4.902-24.778-23.75-45.432-48.437-51.5-6.413-1.576-13.068-2.168-19.657-1.719Zm-53.093,96.906c-.144-.287-.267-.585-.407-.874.141.29.262.587.407.874Zm-.407-.874c-1.338-2.765-2.549-5.628-3.5-8.594.946,2.959,2.154,5.805,3.5,8.594Z" clip-rule="evenodd" fill="#d7556c" stroke-linecap="round" stroke-linejoin="round" stroke-miterlimit="10"/></g><g clip-rule="evenodd"><path d="M390.074,595.826c0-11.61,9.025-21.022,20.158-21.022s20.159,9.412,20.159,21.022c0,11.609-9.026,21.021-20.159,21.021s-20.158-9.412-20.158-21.021Z" clip-rule="evenodd" fill-rule="evenodd" stroke-linecap="round" stroke-linejoin="round" stroke-miterlimit="10"/><path d="M408.906,574.469c-1.373.085-2.771.297-4.156.687-3.172.894-3.485,1.207-4.25,2.906.683-.412,1.328-.892,2.062-1.218c9.253-4.111,19.858-.26,24.844,8.5c2.739,4.811,3.443,10.682,2.063,16.031-2.064,7.995-8.902,14.342-17.188,15.25-8.211.9-15.841-3.551-19.656-10.625c1.521,2.871,3.621,5.424,6.281,7.312c8.427,5.98,19.874,4.386,26.594-3.5c3.433-4.028,5.202-9.242,5.125-14.468-.026-1.742-.249-3.487-.687-5.188-2.504-9.703-11.42-16.281-21.032-15.687Zm-8.406,3.593c-4.141,2.502-7.373,6.394-8.906,11-.429,1.29-.703,2.622-.875,3.969-.055.427-.089,1.083-.094,1.25c7.117-9.952,8.993-14.257,9.875-16.219Zm-9.875,16.219c-.448.627-.505.857-1,1.531-.004.252.186.465.437.469.035.001.03-.055.063-.062.203-.043.403-.159.406-.375.098-1.556.087-1.354.094-1.563Zm-.5,1.938c.03.479.214,3.478.656,5.187.105.406.277.789.407,1.188-.509-1.622-1.002-5.832-1.063-6.375Zm1.219,6.812c.345.99.764,1.948,1.25,2.875-.486-.91-.898-1.884-1.25-2.875Z" clip-rule="evenodd" fill="#d7556c" stroke-linecap="round" stroke-linejoin="round" stroke-miterlimit="10"/></g></g><g clip-rule="evenodd"><g clip-rule="evenodd"><path d="M529.568,613.555c0-36.694,28.967-66.44,64.699-66.44s64.699,29.746,64.699,66.44c0,36.695-28.967,66.441-64.699,66.441s-64.699-29.746-64.699-66.441Z" clip-rule="evenodd" fill="#fff" fill-rule="evenodd" stroke-linecap="round" stroke-linejoin="round" stroke-miterlimit="10"/><path d="M589.812,546.875c-26.654,1.819-49.348,20.467-57.437,45.75-1.465,4.579.019.018-3.25,20.937-.004.252.186.434.437.438.018,0,.015-.03.032-.031.012.489.105,4.258.312,6.375.429,4.39,1.289,8.745,2.563,12.968.105.351.263.683.375,1.032-1.424-4.441-3.138-19.646-3.219-20.375.215-.034.403-.181.406-.407.329-6.755.093-4.513.313-6.75.429-4.36,1.294-8.681,2.562-12.874c5.29-17.494,17.89-32.487,34.438-40.344c6.735-3.198,14.014-5.179,21.437-5.844c6.868-.615,13.833-.111,20.531,1.531c5.448,1.335,10.724,3.433,15.626,6.157c15.448,8.581,26.874,23.5,31.468,40.531c2.71,10.043,3.05,20.735,1.032,30.937-4.87,24.614-23.556,45.079-48.063,51.125-6.363,1.57-12.993,2.169-19.531,1.719-23.062-1.586-43.12-15.872-53.219-36.125c6.509,13.104,17.199,24.025,30.5,30.344c6.788,3.225,14.142,5.209,21.625,5.875c6.921.616,13.936.117,20.688-1.532c5.491-1.341,10.81-3.44,15.75-6.187c15.557-8.654,27.061-23.687,31.687-40.844c2.727-10.115,3.064-20.882,1.031-31.156-4.902-24.778-23.718-45.463-48.406-51.531-6.413-1.576-13.099-2.169-19.688-1.719Zm-56.968,87.469c.964,3.013,2.152,5.946,3.531,8.781-1.38-2.826-2.557-5.743-3.531-8.781Z" clip-rule="evenodd" fill="#d7556c" stroke-linecap="round" stroke-linejoin="round" stroke-miterlimit="10"/></g><g clip-rule="evenodd"><path d="M574.109,613.555c0-11.609,9.025-21.021,20.158-21.021s20.159,9.412,20.159,21.021c0,11.61-9.026,21.021-20.159,21.021s-20.158-9.411-20.158-21.021Z" clip-rule="evenodd" fill-rule="evenodd" stroke-linecap="round" stroke-linejoin="round" stroke-miterlimit="10"/><path d="M592.938,592.188c-1.374.084-2.771.328-4.157.718-3.151.888-3.495,1.176-4.25,2.844.679-.409,1.333-.863,2.063-1.188c9.252-4.11,19.857-.228,24.844,8.532c2.738,4.811,3.443,10.651,2.062,16-2.063,7.995-8.902,14.342-17.188,15.25-8.234.902-15.883-3.577-19.687-10.688c1.523,2.904,3.659,5.47,6.344,7.375c8.426,5.98,19.842,4.417,26.562-3.469c3.433-4.028,5.202-9.242,5.125-14.468-.025-1.742-.248-3.487-.687-5.188-2.504-9.703-11.42-16.312-21.031-15.718Zm-16.313,31.468c-.495-.925-.892-1.897-1.25-2.906.348,1.003.758,1.968,1.25,2.906Zm7.906-27.906c-4.147,2.501-7.34,6.419-8.875,11.031-.429,1.289-.733,2.622-.906,3.969-.056.438-.088,1.104-.094,1.281c7.158-10.009,8.994-14.332,9.875-16.281Zm-9.875,16.281c-.447.626-.506.858-1,1.531-.004.252.187.434.438.438.026,0,.037-.027.062-.031c0-.003,0-.029,0-.031.204-.043.403-.159.406-.376.096-1.524.088-1.319.094-1.531Zm-.5,1.938c.03.479.214,3.477.656,5.187.106.406.278.789.407,1.188-.509-1.622-1.001-5.832-1.063-6.375Z" clip-rule="evenodd" fill="#d7556c" stroke-linecap="round" stroke-linejoin="round" stroke-miterlimit="10"/></g></g><path d="M500,700c-85,0-130-40-180-100s-40-160-40-160-60-20-60-80s180-280,280-280s280,220,280,280-60,80-60,80s15,100-40,160-95,100-180,100Z" clip-rule="evenodd" fill="#ef6a84" fill-rule="evenodd" stroke-linecap="round" stroke-linejoin="round" stroke-miterlimit="10"/><path d="M360,560c-80,80-200,0-200,60c0,80,115.279,80,160,80c40,0,100-60,120-80-40-20-60-20-80-60Z" clip-rule="evenodd" fill="#ef6a84" fill-rule="evenodd" stroke-linecap="round" stroke-linejoin="round" stroke-miterlimit="10"/><path d="M460,620c-40-20-60-20-80-40-120,60-132.762203,249.651917-60,249.651917C383.094,829.651917,360,700,460,620Z" clip-rule="evenodd" fill="#ef6a84" fill-rule="evenodd" stroke-linecap="round" stroke-linejoin="round" stroke-miterlimit="10"/><path d="M408.906001,623.656C448.906001,643.656,480,656.25,520,656.25C440,736.25,540,860,460,860s-91.093999-196.344-51.093999-236.344Z" clip-rule="evenodd" fill="#ef6a84" fill-rule="evenodd" stroke-linecap="round" stroke-linejoin="round" stroke-miterlimit="10"/><path d="M490.62047,656.250001c60,0,57.686744-16.25,89.37953-36.250001c40,80,40,240-40,240-67.625,0,10.62047-123.749999-49.37953-203.749999Z" clip-rule="evenodd" fill="#ef6a84" fill-rule="evenodd" stroke-linecap="round" stroke-linejoin="round" stroke-miterlimit="10"/><path d="M560,640c60-20,60-20,100-40c80,120,42.019897,240-20,240-50.188-10.348083,18.966-120-80-200Z" clip-rule="evenodd" fill="#ef6a84" fill-rule="evenodd" stroke-linecap="round" stroke-linejoin="round" stroke-miterlimit="10"/><path d="M600,620c140,200,292.563946-27.466,212.563946-27.466C772.563946,592.534,720,640,660,580c-20,20-40,40-60,40Z" clip-rule="evenodd" fill="#ef6a84" fill-rule="evenodd" stroke-linecap="round" stroke-linejoin="round" stroke-miterlimit="10"/><path d="M360,520c0-33.137,26.863-60,60-60s60,26.863,60,60-26.863,60-60,60-60-26.863-60-60Z" clip-rule="evenodd" fill="#fff" fill-rule="evenodd" stroke-linecap="round" stroke-linejoin="round" stroke-miterlimit="10"/><path d="M520,520c0-33.137,26.863-60,60-60s60,26.863,60,60-26.863,60-60,60-60-26.863-60-60Z" clip-rule="evenodd" fill="#fff" fill-rule="evenodd" stroke-linecap="round" stroke-linejoin="round" stroke-miterlimit="10"/><path d="M392,520c0-11.046,8.5-28,28-28s28,16.954,28,28-8.5,28.25-28,28-28-16.954-28-28Z" clip-rule="evenodd" fill-rule="evenodd" stroke-linecap="round" stroke-linejoin="round" stroke-miterlimit="10"/><path d="M552,520c0-11.046,8-28,28-28s28,16.954,28,28-8,27.99762-28,28-28-16.954-28-28Z" clip-rule="evenodd" fill-rule="evenodd" stroke-linecap="round" stroke-linejoin="round" stroke-miterlimit="10"/><path d="M466,606c0-16.569,6.386-4,34-4s34-13.569,34,3-14,28.312-34,29-34-11.431-34-28Z" clip-rule="evenodd" fill-rule="evenodd" stroke-linecap="round" stroke-linejoin="round" stroke-miterlimit="10"/></g></svg>