<svg id="eaMlBJ9wAzF1" xmlns="http://www.w3.org/2000/svg" xmlns:xlink="http://www.w3.org/1999/xlink" viewBox="0 0 1000 940" shape-rendering="geometricPrecision" text-rendering="geometricPrecision"><g clip-rule="evenodd"><path d="" clip-rule="evenodd" fill="#40bdb8" fill-rule="evenodd" stroke="#41bdb8" stroke-width="2.58825" stroke-miterlimit="10"/><path d="" clip-rule="evenodd" fill="#40bdb8" fill-rule="evenodd" stroke="#41bdb8" stroke-width="2.58825" stroke-miterlimit="10"/><g clip-rule="evenodd"><path d="M345.533,595.826c0-36.695,28.967-66.441,64.699-66.441s64.699,29.746,64.699,66.441c0,36.694-28.967,66.44-64.699,66.44s-64.699-29.746-64.699-66.44Z" clip-rule="evenodd" fill="#fff" fill-rule="evenodd" stroke-linecap="round" stroke-linejoin="round" stroke-miterlimit="10"/><path d="M405.781,529.156c-26.654,1.819-49.348,20.468-57.437,45.75-1.465,4.579-.013-.013-3.282,20.906-.003.252.218.465.469.469.018.001.015-.029.031-.031.013.52.107,4.268.313,6.375.429,4.391,1.257,8.745,2.531,12.969.103.342.267.66.375,1-1.424-4.441-3.106-19.646-3.187-20.375.203-.043.403-.159.406-.375.329-6.756.092-4.545.312-6.782.43-4.36,1.295-8.681,2.563-12.874c5.289-17.494,17.89-32.487,34.437-40.344c6.736-3.198,14.014-5.148,21.438-5.813c6.867-.615,13.833-.11,20.531,1.531c5.447,1.336,10.723,3.403,15.625,6.126c15.449,8.581,26.875,23.5,31.469,40.531c2.709,10.043,3.05,20.766,1.031,30.969-4.869,24.613-23.555,45.078-48.062,51.124-6.363,1.57-12.993,2.138-19.532,1.688-22.999-1.582-42.999-15.772-53.124-35.938c6.517,13.021,17.168,23.899,30.406,30.188c6.788,3.225,14.11,5.209,21.594,5.875c6.92.616,13.967.086,20.718-1.563c5.492-1.341,10.811-3.44,15.75-6.187c15.557-8.654,27.062-23.687,31.688-40.844c2.727-10.115,3.064-20.882,1.031-31.156-4.902-24.778-23.75-45.432-48.437-51.5-6.413-1.576-13.068-2.168-19.657-1.719Zm-53.093,96.906c-.144-.287-.267-.585-.407-.874.141.29.262.587.407.874Zm-.407-.874c-1.338-2.765-2.549-5.628-3.5-8.594.946,2.959,2.154,5.805,3.5,8.594Z" clip-rule="evenodd" fill="#d7556c" stroke-linecap="round" stroke-linejoin="round" stroke-miterlimit="10"/></g><g clip-rule="evenodd"><g clip-rule="evenodd"><path d="M345.533,595.826c0-36.695,28.967-66.441,64.699-66.441s64.699,29.746,64.699,66.441c0,36.694-28.967,66.44-64.699,66.44s-64.699-29.746-64.699-66.44Z" clip-rule="evenodd" fill="#fff" fill-rule="evenodd" stroke-linecap="round" stroke-linejoin="round" stroke-miterlimit="10"/><path d="M405.781,529.156c-26.654,1.819-49.348,20.468-57.437,45.75-1.465,4.579-.013-.013-3.282,20.906-.003.252.218.465.469.469.018.001.015-.029.031-.031.013.52.107,4.268.313,6.375.429,4.391,1.257,8.745,2.531,12.969.103.342.267.66.375,1-1.424-4.441-3.106-19.646-3.187-20.375.203-.043.403-.159.406-.375.329-6.756.092-4.545.312-6.782.43-4.36,1.295-8.681,2.563-12.874c5.289-17.494,17.89-32.487,34.437-40.344c6.736-3.198,14.014-5.148,21.438-5.813c6.867-.615,13.833-.11,20.531,1.531c5.447,1.336,10.723,3.403,15.625,6.126c15.449,8.581,26.875,23.5,31.469,40.531c2.709,10.043,3.05,20.766,1.031,30.969-4.869,24.613-23.555,45.078-48.062,51.124-6.363,1.57-12.993,2.138-19.532,1.688-22.999-1.582-42.999-15.772-53.124-35.938c6.517,13.021,17.168,23.899,30.406,30.188c6.788,3.225,14.11,5.209,21.594,5.875c6.92.616,13.967.086,20.718-1.563c5.492-1.341,10.811-3.44,15.75-6.187c15.557-8.654,27.062-23.687,31.688-40.844c2.727-10.115,3.064-20.882,1.031-31.156-4.902-24.778-23.75-45.432-48.437-51.5-6.413-1.576-13.068-2.168-19.657-1.719Zm-53.093,96.906c-.144-.287-.267-.585-.407-.874.141.29.262.587.407.874Zm-.407-.874c-1.338-2.765-2.549-5.628-3.5-8.594.946,2.959,2.154,5.805,3.5,8.594Z" clip-rule="evenodd" fill="#d7556c" stroke-linecap="round" stroke-linejoin="round" stroke-miterlimit="10"/></g><g clip-rule="evenodd"><path d="M390.074,595.826c0-11.61,9.025-21.022,20.158-21.022s20.159,9.412,20.159,21.022c0,11.609-9.026,21.021-20.159,21.021s-20.158-9.412-20.158-21.021Z" clip-rule="evenodd" fill-rule="evenodd" stroke-linecap="round" stroke-linejoin="round" stroke-miterlimit="10"/><path d="M408.906,574.469c-1.373.085-2.771.297-4.156.687-3.172.894-3.485,1.207-4.25,2.906.683-.412,1.328-.892,2.062-1.218c9.253-4.111,19.858-.26,24.844,8.5c2.739,4.811,3.443,10.682,2.063,16.031-2.064,7.995-8.902,14.342-17.188,15.25-8.211.9-15.841-3.551-19.656-10.625c1.521,2.871,3.621,5.424,6.281,7.312c8.427,5.98,19.874,4.386,26.594-3.5c3.433-4.028,5.202-9.242,5.125-14.468-.026-1.742-.249-3.487-.687-5.188-2.504-9.703-11.42-16.281-21.032-15.687Zm-8.406,3.593c-4.141,2.502-7.373,6.394-8.906,11-.429,1.29-.703,2.622-.875,3.969-.055.427-.089,1.083-.094,1.25c7.117-9.952,8.993-14.257,9.875-16.219Zm-9.875,16.219c-.448.627-.505.857-1,1.531-.004.252.186.465.437.469.035.001.03-.055.063-.062.203-.043.403-.159.406-.375.098-1.556.087-1.354.094-1.563Zm-.5,1.938c.03.479.214,3.478.656,5.187.105.406.277.789.407,1.188-.509-1.622-1.002-5.832-1.063-6.375Zm1.219,6.812c.345.99.764,1.948,1.25,2.875-.486-.91-.898-1.884-1.25-2.875Z" clip-rule="evenodd" fill="#d7556c" stroke-linecap="round" stroke-linejoin="round" stroke-miterlimit="10"/></g></g><g clip-rule="evenodd"><g clip-rule="evenodd"><path d="M529.568,613.555c0-36.694,28.967-66.44,64.699-66.44s64.699,29.746,64.699,66.44c0,36.695-28.967,66.441-64.699,66.441s-64.699-29.746-64.699-66.441Z" clip-rule="evenodd" fill="#fff" fill-rule="evenodd" stroke-linecap="round" stroke-linejoin="round" stroke-miterlimit="10"/><path d="M589.812,546.875c-26.654,1.819-49.348,20.467-57.437,45.75-1.465,4.579.019.018-3.25,20.937-.004.252.186.434.437.438.018,0,.015-.03.032-.031.012.489.105,4.258.312,6.375.429,4.39,1.289,8.745,2.563,12.968.105.351.263.683.375,1.032-1.424-4.441-3.138-19.646-3.219-20.375.215-.034.403-.181.406-.407.329-6.755.093-4.513.313-6.75.429-4.36,1.294-8.681,2.562-12.874c5.29-17.494,17.89-32.487,34.438-40.344c6.735-3.198,14.014-5.179,21.437-5.844c6.868-.615,13.833-.111,20.531,1.531c5.448,1.335,10.724,3.433,15.626,6.157c15.448,8.581,26.874,23.5,31.468,40.531c2.71,10.043,3.05,20.735,1.032,30.937-4.87,24.614-23.556,45.079-48.063,51.125-6.363,1.57-12.993,2.169-19.531,1.719-23.062-1.586-43.12-15.872-53.219-36.125c6.509,13.104,17.199,24.025,30.5,30.344c6.788,3.225,14.142,5.209,21.625,5.875c6.921.616,13.936.117,20.688-1.532c5.491-1.341,10.81-3.44,15.75-6.187c15.557-8.654,27.061-23.687,31.687-40.844c2.727-10.115,3.064-20.882,1.031-31.156-4.902-24.778-23.718-45.463-48.406-51.531-6.413-1.576-13.099-2.169-19.688-1.719Zm-56.968,87.469c.964,3.013,2.152,5.946,3.531,8.781-1.38-2.826-2.557-5.743-3.531-8.781Z" clip-rule="evenodd" fill="#d7556c" stroke-linecap="round" stroke-linejoin="round" stroke-miterlimit="10"/></g><g clip-rule="evenodd"><path d="M574.109,613.555c0-11.609,9.025-21.021,20.158-21.021s20.159,9.412,20.159,21.021c0,11.61-9.026,21.021-20.159,21.021s-20.158-9.411-20.158-21.021Z" clip-rule="evenodd" fill-rule="evenodd" stroke-linecap="round" stroke-linejoin="round" stroke-miterlimit="10"/><path d="M592.938,592.188c-1.374.084-2.771.328-4.157.718-3.151.888-3.495,1.176-4.25,2.844.679-.409,1.333-.863,2.063-1.188c9.252-4.11,19.857-.228,24.844,8.532c2.738,4.811,3.443,10.651,2.062,16-2.063,7.995-8.902,14.342-17.188,15.25-8.234.902-15.883-3.577-19.687-10.688c1.523,2.904,3.659,5.47,6.344,7.375c8.426,5.98,19.842,4.417,26.562-3.469c3.433-4.028,5.202-9.242,5.125-14.468-.025-1.742-.248-3.487-.687-5.188-2.504-9.703-11.42-16.312-21.031-15.718Zm-16.313,31.468c-.495-.925-.892-1.897-1.25-2.906.348,1.003.758,1.968,1.25,2.906Zm7.906-27.906c-4.147,2.501-7.34,6.419-8.875,11.031-.429,1.289-.733,2.622-.906,3.969-.056.438-.088,1.104-.094,1.281c7.158-10.009,8.994-14.332,9.875-16.281Zm-9.875,16.281c-.447.626-.506.858-1,1.531-.004.252.187.434.438.438.026,0,.037-.027.062-.031c0-.003,0-.029,0-.031.204-.043.403-.159.406-.376.096-1.524.088-1.319.094-1.531Zm-.5,1.938c.03.479.214,3.477.656,5.187.106.406.278.789.407,1.188-.509-1.622-1.001-5.832-1.063-6.375Z" clip-rule="evenodd" fill="#d7556c" stroke-linecap="round" stroke-linejoin="round" stroke-miterlimit="10"/></g></g><path id="eaMlBJ9wAzF22" d="M500,700c-85,0-130-40-180-100s-40-160-40-160-60-20-60-80s180-280,280-280s280,220,280,280-60,80-60,80s15,100-40,160-95,100-180,100Z" clip-rule="evenodd" fill="#ef6a84" fill-rule="evenodd" stroke-linecap="round" stroke-linejoin="round" stroke-miterlimit="10"/><path id="eaMlBJ9wAzF23" d="M360,560c-80,80-200,0-200,60c0,80,115.279,80,160,80c40,0,100-60,120-80-40-20-60-20-80-60Z" clip-rule="evenodd" fill="#ef6a84" fill-rule="evenodd" stroke-linecap="round" stroke-linejoin="round" stroke-miterlimit="10"/><path id="eaMlBJ9wAzF24" d="M460,620c-40-20-60-20-80-40-120,60-132.762203,249.651917-60,249.651917C383.094,829.651917,360,700,460,620Z" clip-rule="evenodd" fill="#ef6a84" fill-rule="evenodd" stroke-linecap="round" stroke-linejoin="round" stroke-miterlimit="10"/><path id="eaMlBJ9wAzF25" d="M408.906001,623.656C448.906001,643.656,480,656.25,520,656.25C440,736.25,540,860,460,860s-91.093999-196.344-51.093999-236.344Z" clip-rule="evenodd" fill="#ef6a84" fill-rule="evenodd" stroke-linecap="round" stroke-linejoin="round" stroke-miterlimit="10"/><path id="eaMlBJ9wAzF26" d="M490.62047,656.250001c60,0,57.686744-16.25,89.37953-36.250001c40,80,40,240-40,240-67.625,0,10.62047-123.749999-49.37953-203.749999Z" clip-rule="evenodd" fill="#ef6a84" fill-rule="evenodd" stroke-linecap="round" stroke-linejoin="round" stroke-miterlimit="10"/><path id="eaMlBJ9wAzF27" d="M560,640c60-20,60-20,100-40c80,120,42.019897,240-20,240-50.188-10.348083,18.966-120-80-200Z" clip-rule="evenodd" fill="#ef6a84" fill-rule="evenodd" stroke-linecap="round" stroke-linejoin="round" stroke-miterlimit="10"/><path id="eaMlBJ9wAzF28" d="M600,620c140,200,292.563946-27.466,212.563946-27.466C772.563946,592.534,720,640,660,580c-20,20-40,40-60,40Z" clip-rule="evenodd" fill="#ef6a84" fill-rule="evenodd" stroke-linecap="round" stroke-linejoin="round" stroke-miterlimit="10"/><path d="M360,520c0-33.137,26.863-60,60-60s60,26.863,60,60-26.863,60-60,60-60-26.863-60-60Z" clip-rule="evenodd" fill="#fff" fill-rule="evenodd" stroke-linecap="round" stroke-linejoin="round" stroke-miterlimit="10"/><path d="M520,520c0-33.137,26.863-60,60-60s60,26.863,60,60-26.863,60-60,60-60-26.863-60-60Z" clip-rule="evenodd" fill="#fff" fill-rule="evenodd" stroke-linecap="round" stroke-linejoin="round" stroke-miterlimit="10"/><path id="eaMlBJ9wAzF31" d="M392,520c0-11.046,8.5-28,28-28s28,16.954,28,28-8.5,28.25-28,28-28-16.954-28-28Z" clip-rule="evenodd" fill-rule="evenodd" stroke-linecap="round" stroke-linejoin="round" stroke-miterlimit="10"/><path id="eaMlBJ9wAzF32" d="M552,520c0-11.046,8-28,28-28s28,16.954,28,28-8,27.99762-28,28-28-16.954-28-28Z" clip-rule="evenodd" fill-rule="evenodd" stroke-linecap="round" stroke-linejoin="round" stroke-miterlimit="10"/><path id="eaMlBJ9wAzF33" d="M466,606c0-16.569,6.386-4,34-4s34-13.569,34,3-14,28.312-34,29-34-11.431-34-28Z" clip-rule="evenodd" fill-rule="evenodd" stroke-linecap="round" stroke-linejoin="round" stroke-miterlimit="10"/></g><script><![CDATA[!function(t,n){"object"==typeof exports&&"undefined"!=typeof module?module.exports=n():"function"==typeof define&&define.amd?define(n):((t="undefined"!=typeof globalThis?globalThis:t||self).__SVGATOR_PLAYER__=t.__SVGATOR_PLAYER__||{},t.__SVGATOR_PLAYER__["7c8cb2ed"]=n())}(this,(function(){"use strict";function t(t,n){var r=Object.keys(t);if(Object.getOwnPropertySymbols){var e=Object.getOwnPropertySymbols(t);n&&(e=e.filter((function(n){return Object.getOwnPropertyDescriptor(t,n).enumerable}))),r.push.apply(r,e)}return r}function n(n){for(var r=1;r<arguments.length;r++){var e=null!=arguments[r]?arguments[r]:{};r%2?t(Object(e),!0).forEach((function(t){o(n,t,e[t])})):Object.getOwnPropertyDescriptors?Object.defineProperties(n,Object.getOwnPropertyDescriptors(e)):t(Object(e)).forEach((function(t){Object.defineProperty(n,t,Object.getOwnPropertyDescriptor(e,t))}))}return n}function r(t){return(r="function"==typeof Symbol&&"symbol"==typeof Symbol.iterator?function(t){return typeof t}:function(t){return t&&"function"==typeof Symbol&&t.constructor===Symbol&&t!==Symbol.prototype?"symbol":typeof t})(t)}function e(t,n){if(!(t instanceof n))throw new TypeError("Cannot call a class as a function")}function i(t,n){for(var r=0;r<n.length;r++){var e=n[r];e.enumerable=e.enumerable||!1,e.configurable=!0,"value"in e&&(e.writable=!0),Object.defineProperty(t,e.key,e)}}function u(t,n,r){return n&&i(t.prototype,n),r&&i(t,r),t}function o(t,n,r){return n in t?Object.defineProperty(t,n,{value:r,enumerable:!0,configurable:!0,writable:!0}):t[n]=r,t}function a(t){return(a=Object.setPrototypeOf?Object.getPrototypeOf:function(t){return t.__proto__||Object.getPrototypeOf(t)})(t)}function l(t,n){return(l=Object.setPrototypeOf||function(t,n){return t.__proto__=n,t})(t,n)}function f(){if("undefined"==typeof Reflect||!Reflect.construct)return!1;if(Reflect.construct.sham)return!1;if("function"==typeof Proxy)return!0;try{return Boolean.prototype.valueOf.call(Reflect.construct(Boolean,[],(function(){}))),!0}catch(t){return!1}}function s(t,n,r){return(s=f()?Reflect.construct:function(t,n,r){var e=[null];e.push.apply(e,n);var i=new(Function.bind.apply(t,e));return r&&l(i,r.prototype),i}).apply(null,arguments)}function c(t,n){if(n&&("object"==typeof n||"function"==typeof n))return n;if(void 0!==n)throw new TypeError("Derived constructors may only return object or undefined");return function(t){if(void 0===t)throw new ReferenceError("this hasn't been initialised - super() hasn't been called");return t}(t)}function h(t,n,r){return(h="undefined"!=typeof Reflect&&Reflect.get?Reflect.get:function(t,n,r){var e=function(t,n){for(;!Object.prototype.hasOwnProperty.call(t,n)&&null!==(t=a(t)););return t}(t,n);if(e){var i=Object.getOwnPropertyDescriptor(e,n);return i.get?i.get.call(r):i.value}})(t,n,r||t)}function v(t){return function(t){if(Array.isArray(t))return y(t)}(t)||function(t){if("undefined"!=typeof Symbol&&null!=t[Symbol.iterator]||null!=t["@@iterator"])return Array.from(t)}(t)||function(t,n){if(!t)return;if("string"==typeof t)return y(t,n);var r=Object.prototype.toString.call(t).slice(8,-1);"Object"===r&&t.constructor&&(r=t.constructor.name);if("Map"===r||"Set"===r)return Array.from(t);if("Arguments"===r||/^(?:Ui|I)nt(?:8|16|32)(?:Clamped)?Array$/.test(r))return y(t,n)}(t)||function(){throw new TypeError("Invalid attempt to spread non-iterable instance.\nIn order to be iterable, non-array objects must have a [Symbol.iterator]() method.")}()}function y(t,n){(null==n||n>t.length)&&(n=t.length);for(var r=0,e=new Array(n);r<n;r++)e[r]=t[r];return e}Number.isInteger||(Number.isInteger=function(t){return"number"==typeof t&&isFinite(t)&&Math.floor(t)===t}),Number.EPSILON||(Number.EPSILON=2220446049250313e-31);var g=p(Math.pow(10,-6));function p(t){var n=arguments.length>1&&void 0!==arguments[1]?arguments[1]:6;if(Number.isInteger(t))return t;var r=Math.pow(10,n);return Math.round((+t+Number.EPSILON)*r)/r}function d(t,n){var r=arguments.length>2&&void 0!==arguments[2]?arguments[2]:g;return Math.abs(t-n)<r}var m=Math.PI/180;function b(t){return t}function A(t,n,r){var e=1-r;return 3*r*e*(t*e+n*r)+r*r*r}function w(){var t=arguments.length>0&&void 0!==arguments[0]?arguments[0]:0,n=arguments.length>1&&void 0!==arguments[1]?arguments[1]:0,r=arguments.length>2&&void 0!==arguments[2]?arguments[2]:1,e=arguments.length>3&&void 0!==arguments[3]?arguments[3]:1;return t<0||t>1||r<0||r>1?null:d(t,n)&&d(r,e)?b:function(i){if(i<=0)return t>0?i*n/t:0===n&&r>0?i*e/r:0;if(i>=1)return r<1?1+(i-1)*(e-1)/(r-1):1===r&&t<1?1+(i-1)*(n-1)/(t-1):1;for(var u,o=0,a=1;o<a;){var l=A(t,r,u=(o+a)/2);if(d(i,l))break;l<i?o=u:a=u}return A(n,e,u)}}function x(){return 1}function k(t){return 1===t?1:0}function _(){var t=arguments.length>0&&void 0!==arguments[0]?arguments[0]:1,n=arguments.length>1&&void 0!==arguments[1]?arguments[1]:0;if(1===t){if(0===n)return k;if(1===n)return x}var r=1/t;return function(t){return t>=1?1:(t+=n*r)-t%r}}var S=Math.sin,O=Math.cos,j=Math.acos,E=Math.asin,M=Math.tan,P=Math.atan2,I=Math.PI/180,R=180/Math.PI,B=Math.sqrt,F=function(){function t(){var n=arguments.length>0&&void 0!==arguments[0]?arguments[0]:1,r=arguments.length>1&&void 0!==arguments[1]?arguments[1]:0,i=arguments.length>2&&void 0!==arguments[2]?arguments[2]:0,u=arguments.length>3&&void 0!==arguments[3]?arguments[3]:1,o=arguments.length>4&&void 0!==arguments[4]?arguments[4]:0,a=arguments.length>5&&void 0!==arguments[5]?arguments[5]:0;e(this,t),this.m=[n,r,i,u,o,a],this.i=null,this.w=null,this.s=null}return u(t,[{key:"determinant",get:function(){var t=this.m;return t[0]*t[3]-t[1]*t[2]}},{key:"isIdentity",get:function(){if(null===this.i){var t=this.m;this.i=1===t[0]&&0===t[1]&&0===t[2]&&1===t[3]&&0===t[4]&&0===t[5]}return this.i}},{key:"point",value:function(t,n){var r=this.m;return{x:r[0]*t+r[2]*n+r[4],y:r[1]*t+r[3]*n+r[5]}}},{key:"translateSelf",value:function(){var t=arguments.length>0&&void 0!==arguments[0]?arguments[0]:0,n=arguments.length>1&&void 0!==arguments[1]?arguments[1]:0;if(!t&&!n)return this;var r=this.m;return r[4]+=r[0]*t+r[2]*n,r[5]+=r[1]*t+r[3]*n,this.w=this.s=this.i=null,this}},{key:"rotateSelf",value:function(){var t=arguments.length>0&&void 0!==arguments[0]?arguments[0]:0;if(t%=360){var n=S(t*=I),r=O(t),e=this.m,i=e[0],u=e[1];e[0]=i*r+e[2]*n,e[1]=u*r+e[3]*n,e[2]=e[2]*r-i*n,e[3]=e[3]*r-u*n,this.w=this.s=this.i=null}return this}},{key:"scaleSelf",value:function(){var t=arguments.length>0&&void 0!==arguments[0]?arguments[0]:1,n=arguments.length>1&&void 0!==arguments[1]?arguments[1]:1;if(1!==t||1!==n){var r=this.m;r[0]*=t,r[1]*=t,r[2]*=n,r[3]*=n,this.w=this.s=this.i=null}return this}},{key:"skewSelf",value:function(t,n){if(n%=360,(t%=360)||n){var r=this.m,e=r[0],i=r[1],u=r[2],o=r[3];t&&(t=M(t*I),r[2]+=e*t,r[3]+=i*t),n&&(n=M(n*I),r[0]+=u*n,r[1]+=o*n),this.w=this.s=this.i=null}return this}},{key:"resetSelf",value:function(){var t=arguments.length>0&&void 0!==arguments[0]?arguments[0]:1,n=arguments.length>1&&void 0!==arguments[1]?arguments[1]:0,r=arguments.length>2&&void 0!==arguments[2]?arguments[2]:0,e=arguments.length>3&&void 0!==arguments[3]?arguments[3]:1,i=arguments.length>4&&void 0!==arguments[4]?arguments[4]:0,u=arguments.length>5&&void 0!==arguments[5]?arguments[5]:0,o=this.m;return o[0]=t,o[1]=n,o[2]=r,o[3]=e,o[4]=i,o[5]=u,this.w=this.s=this.i=null,this}},{key:"recomposeSelf",value:function(){var t=arguments.length>0&&void 0!==arguments[0]?arguments[0]:null,n=arguments.length>1&&void 0!==arguments[1]?arguments[1]:null,r=arguments.length>2&&void 0!==arguments[2]?arguments[2]:null,e=arguments.length>3&&void 0!==arguments[3]?arguments[3]:null,i=arguments.length>4&&void 0!==arguments[4]?arguments[4]:null;return this.isIdentity||this.resetSelf(),t&&(t.x||t.y)&&this.translateSelf(t.x,t.y),n&&this.rotateSelf(n),r&&(r.x&&this.skewSelf(r.x,0),r.y&&this.skewSelf(0,r.y)),!e||1===e.x&&1===e.y||this.scaleSelf(e.x,e.y),i&&(i.x||i.y)&&this.translateSelf(i.x,i.y),this}},{key:"decompose",value:function(){var t=arguments.length>0&&void 0!==arguments[0]?arguments[0]:0,n=arguments.length>1&&void 0!==arguments[1]?arguments[1]:0,r=this.m,e=r[0]*r[0]+r[1]*r[1],i=[[r[0],r[1]],[r[2],r[3]]],u=B(e);if(0===u)return{origin:{x:p(r[4]),y:p(r[5])},translate:{x:p(t),y:p(n)},scale:{x:0,y:0},skew:{x:0,y:0},rotate:0};i[0][0]/=u,i[0][1]/=u;var o=r[0]*r[3]-r[1]*r[2]<0;o&&(u=-u);var a=i[0][0]*i[1][0]+i[0][1]*i[1][1];i[1][0]-=i[0][0]*a,i[1][1]-=i[0][1]*a;var l=B(i[1][0]*i[1][0]+i[1][1]*i[1][1]);if(0===l)return{origin:{x:p(r[4]),y:p(r[5])},translate:{x:p(t),y:p(n)},scale:{x:p(u),y:0},skew:{x:0,y:0},rotate:0};i[1][0]/=l,i[1][1]/=l,a/=l;var f=0;return i[1][1]<0?(f=j(i[1][1])*R,i[0][1]<0&&(f=360-f)):f=E(i[0][1])*R,o&&(f=-f),a=P(a,B(i[0][0]*i[0][0]+i[0][1]*i[0][1]))*R,o&&(a=-a),{origin:{x:p(r[4]),y:p(r[5])},translate:{x:p(t),y:p(n)},scale:{x:p(u),y:p(l)},skew:{x:p(a),y:0},rotate:p(f)}}},{key:"clone",value:function(){var t=this.m;return new this.constructor(t[0],t[1],t[2],t[3],t[4],t[5])}},{key:"toString",value:function(){var t=arguments.length>0&&void 0!==arguments[0]?arguments[0]:" ";if(null===this.s){var n=this.m.map((function(t){return p(t)}));1===n[0]&&0===n[1]&&0===n[2]&&1===n[3]?this.s="translate("+n[4]+t+n[5]+")":this.s="matrix("+n.join(t)+")"}return this.s}}],[{key:"create",value:function(t){return t?Array.isArray(t)?s(this,v(t)):t instanceof this?t.clone():(new this).recomposeSelf(t.origin,t.rotate,t.skew,t.scale,t.translate):new this}}]),t}();function N(t,n,r){return t>=.5?r:n}function T(t,n,r){return 0===t||n===r?n:t*(r-n)+n}function q(t,n,r){var e=T(t,n,r);return e<=0?0:e}function L(t,n,r){var e=T(t,n,r);return e<=0?0:e>=1?1:e}function C(t,n,r){return 0===t?n:1===t?r:{x:T(t,n.x,r.x),y:T(t,n.y,r.y)}}function D(t,n,r){return 0===t?n:1===t?r:{x:q(t,n.x,r.x),y:q(t,n.y,r.y)}}function V(t,n,r){var e=function(t,n,r){return Math.round(T(t,n,r))}(t,n,r);return e<=0?0:e>=255?255:e}function z(t,n,r){return 0===t?n:1===t?r:{r:V(t,n.r,r.r),g:V(t,n.g,r.g),b:V(t,n.b,r.b),a:T(t,null==n.a?1:n.a,null==r.a?1:r.a)}}function G(t,n,r){var e=n.length;if(e!==r.length)return N(t,n,r);for(var i=new Array(e),u=0;u<e;u++)i[u]=T(t,n[u],r[u]);return i}function Y(t,n){for(var r=[],e=0;e<t;e++)r.push(n);return r}function $(t,n){if(--n<=0)return t;var r=(t=Object.assign([],t)).length;do{for(var e=0;e<r;e++)t.push(t[e])}while(--n>0);return t}var U,Q=function(){function t(n){e(this,t),this.list=n,this.length=n.length}return u(t,[{key:"setAttribute",value:function(t,n){for(var r=this.list,e=0;e<this.length;e++)r[e].setAttribute(t,n)}},{key:"removeAttribute",value:function(t){for(var n=this.list,r=0;r<this.length;r++)n[r].removeAttribute(t)}},{key:"style",value:function(t,n){for(var r=this.list,e=0;e<this.length;e++)r[e].style[t]=n}}]),t}(),H=/-./g,J=function(t,n){return n.toUpperCase()};function Z(t){return"function"==typeof t?t:N}function K(t){return t?"function"==typeof t?t:Array.isArray(t)?function(t){var n=arguments.length>1&&void 0!==arguments[1]?arguments[1]:b;if(!Array.isArray(t))return n;switch(t.length){case 1:return _(t[0])||n;case 2:return _(t[0],t[1])||n;case 4:return w(t[0],t[1],t[2],t[3])||n}return n}(t,null):function(t,n){var r=arguments.length>2&&void 0!==arguments[2]?arguments[2]:b;switch(t){case"linear":return b;case"steps":return _(n.steps||1,n.jump||0)||r;case"bezier":case"cubic-bezier":return w(n.x1||0,n.y1||0,n.x2||0,n.y2||0)||r}return r}(t.type,t.value,null):null}function W(t,n,r){var e=arguments.length>3&&void 0!==arguments[3]&&arguments[3],i=n.length-1;if(t<=n[0].t)return e?[0,0,n[0].v]:n[0].v;if(t>=n[i].t)return e?[i,1,n[i].v]:n[i].v;var u,o=n[0],a=null;for(u=1;u<=i;u++){if(!(t>n[u].t)){a=n[u];break}o=n[u]}return null==a?e?[i,1,n[i].v]:n[i].v:o.t===a.t?e?[u,1,a.v]:a.v:(t=(t-o.t)/(a.t-o.t),o.e&&(t=o.e(t)),e?[u,t,r(t,o.v,a.v)]:r(t,o.v,a.v))}function X(t,n){var r=arguments.length>2&&void 0!==arguments[2]?arguments[2]:null;return t&&t.length?"function"!=typeof n?null:("function"!=typeof r&&(r=null),function(e){var i=W(e,t,n);return null!=i&&r&&(i=r(i)),i}):null}function tt(t,n){return t.t-n.t}function nt(t,n,e,i,u){var o,a="@"===e[0],l="#"===e[0],f=U[e],s=N;switch(a?(o=e.substr(1),e=o.replace(H,J)):l&&(e=e.substr(1)),r(f)){case"function":if(s=f(i,u,W,K,e,a,n,t),l)return s;break;case"string":s=X(i,Z(f));break;case"object":if((s=X(i,Z(f.i),f.f))&&"function"==typeof f.u)return f.u(n,s,e,a,t)}return s?function(t,n,r){if(arguments.length>3&&void 0!==arguments[3]&&arguments[3])return t instanceof Q?function(e){return t.style(n,r(e))}:function(e){return t.style[n]=r(e)};if(Array.isArray(n)){var e=n.length;return function(i){var u=r(i);if(null==u)for(var o=0;o<e;o++)t[o].removeAttribute(n);else for(var a=0;a<e;a++)t[a].setAttribute(n,u)}}return function(e){var i=r(e);null==i?t.removeAttribute(n):t.setAttribute(n,i)}}(n,e,s,a):null}function rt(t,n,e,i){if(!i||"object"!==r(i))return null;var u=null,o=null;return Array.isArray(i)?o=function(t){if(!t||!t.length)return null;for(var n=0;n<t.length;n++)t[n].e&&(t[n].e=K(t[n].e));return t.sort(tt)}(i):(o=i.keys,u=i.data||null),o?nt(t,n,e,o,u):null}function et(t,n,r){if(!r)return null;var e=[];for(var i in r)if(r.hasOwnProperty(i)){var u=rt(t,n,i,r[i]);u&&e.push(u)}return e.length?e:null}function it(t,n){if(!n.duration||n.duration<0)return null;var r=function(t,n){if(!n)return null;var r=[];if(Array.isArray(n))for(var e=n.length,i=0;i<e;i++){var u=n[i];if(2===u.length){var o=null;if("string"==typeof u[0])o=t.getElementById(u[0]);else if(Array.isArray(u[0])){o=[];for(var a=0;a<u[0].length;a++)if("string"==typeof u[0][a]){var l=t.getElementById(u[0][a]);l&&o.push(l)}o=o.length?1===o.length?o[0]:new Q(o):null}if(o){var f=et(t,o,u[1]);f&&(r=r.concat(f))}}}else for(var s in n)if(n.hasOwnProperty(s)){var c=t.getElementById(s);if(c){var h=et(t,c,n[s]);h&&(r=r.concat(h))}}return r.length?r:null}(t,n.elements);return r?function(t,n){var r=arguments.length>2&&void 0!==arguments[2]?arguments[2]:1/0,e=arguments.length>3&&void 0!==arguments[3]?arguments[3]:1,i=arguments.length>4&&void 0!==arguments[4]&&arguments[4],u=arguments.length>5&&void 0!==arguments[5]?arguments[5]:1,o=t.length,a=e>0?n:0;i&&r%2==0&&(a=n-a);var l=null;return function(f,s){var c=f%n,h=1+(f-c)/n;s*=e,i&&h%2==0&&(s=-s);var v=!1;if(h>r)c=a,v=!0,-1===u&&(c=e>0?0:n);else if(s<0&&(c=n-c),c===l)return!1;l=c;for(var y=0;y<o;y++)t[y](c);return v}}(r,n.duration,n.iterations||1/0,n.direction||1,!!n.alternate,n.fill||1):null}function ut(t){return+("0x"+(t.replace(/[^0-9a-fA-F]+/g,"")||27))}function ot(t,n,r){return!t||!r||n>t.length?t:t.substring(0,n)+ot(t.substring(n+1),r,r)}function at(t){var n=arguments.length>1&&void 0!==arguments[1]?arguments[1]:27;return!t||t%n?t%n:at(t/n,n)}function lt(t,n,r){if(t&&t.length){var e=ut(r),i=ut(n),u=at(e)+5,o=ot(t,at(e,5),u);return o=o.replace(/\x7c$/g,"==").replace(/\x2f$/g,"="),o=function(t,n,r){var e=+("0x"+t.substring(0,4));t=t.substring(4);for(var i=n%e+r%27,u=[],o=0;o<t.length;o+=2)if("|"!==t[o]){var a=+("0x"+t[o]+t[o+1])-i;u.push(a)}else{var l=+("0x"+t.substring(o+1,o+1+4))-i;o+=3,u.push(l)}return String.fromCharCode.apply(String,u)}(o=(o=atob(o)).replace(/[\x41-\x5A]/g,""),i,e),o=JSON.parse(o)}}var ft=function(){function t(n,r){var i=arguments.length>2&&void 0!==arguments[2]?arguments[2]:{};e(this,t),this._id=0,this._running=!1,this._rollingBack=!1,this._animations=n,this.duration=r.duration,this.alternate=r.alternate,this.fill=r.fill,this.iterations=r.iterations,this.direction=i.direction||1,this.speed=i.speed||1,this.fps=i.fps||100,this.offset=i.offset||0,this.rollbackStartOffset=0}return u(t,[{key:"maxFiniteDuration",get:function(){return this.iterations>0?this.iterations*this.duration:this.duration}},{key:"_apply",value:function(t){for(var n=arguments.length>1&&void 0!==arguments[1]?arguments[1]:{},r=this._animations,e=r.length,i=0,u=0;u<e;u++)n[u]?i++:(n[u]=r[u](t,this.direction),n[u]&&i++);return i}},{key:"_rollback",value:function(){var t=this,n=1/0,r=null;this.rollbackStartOffset=this.offset,this._rollingBack=!0,this._running=!0;this._id=window.requestAnimationFrame((function e(i){if(t._rollingBack){null==r&&(r=i);var u=i-r,o=t.rollbackStartOffset-u,a=Math.round(o*t.speed);if(a>t.duration&&n!==1/0){var l=!!t.alternate&&a/t.duration%2>1,f=a%t.duration;a=(f+=l?t.duration:0)||t.duration}var s=t.fps?1e3/t.fps:0,c=Math.max(0,a);c<n-s&&(t.offset=c,n=c,t._apply(c));var h=t.iterations>0&&-1===t.fill&&a>=t.maxFiniteDuration;(a<=0||t.offset<a||h)&&t.stop(),t._id=window.requestAnimationFrame(e)}}))}},{key:"_start",value:function(){var t=this,n=arguments.length>0&&void 0!==arguments[0]?arguments[0]:0,r=-1/0,e=null,i={};this._running=!0;var u=function u(o){null==e&&(e=o);var a=Math.round((o-e+n)*t.speed),l=t.fps?1e3/t.fps:0;if(a>r+l&&!t._rollingBack&&(t.offset=a,r=a,t._apply(a,i)===t._animations.length))return void t.pause(!0);t._id=window.requestAnimationFrame(u)};this._id=window.requestAnimationFrame(u)}},{key:"_pause",value:function(){this._id&&window.cancelAnimationFrame(this._id),this._running=!1}},{key:"play",value:function(){if(!this._running)return this._rollingBack?this._rollback():this._start(this.offset)}},{key:"stop",value:function(){this._pause(),this.offset=0,this.rollbackStartOffset=0,this._rollingBack=!1,this._apply(0)}},{key:"reachedToEnd",value:function(){return this.iterations>0&&this.offset>=this.iterations*this.duration}},{key:"restart",value:function(){var t=arguments.length>0&&void 0!==arguments[0]&&arguments[0];this.stop(t),this.play(t)}},{key:"pause",value:function(){this._pause()}},{key:"reverse",value:function(){this.direction=-this.direction}}],[{key:"build",value:function(t,r){return delete t.animationSettings,t.options=lt(t.options,t.root,"7c8cb2ed"),t.animations.map((function(r){var e=lt(r.s,t.root,"7c8cb2ed");for(var i in delete r.s,t.animationSettings||(t.animationSettings=n({},e)),e)e.hasOwnProperty(i)&&(r[i]=e[i])})),(t=function(t,n){if(U=n,!t||!t.root||!Array.isArray(t.animations))return null;for(var r=document.getElementsByTagName("svg"),e=!1,i=0;i<r.length;i++)if(r[i].id===t.root&&!r[i].svgatorAnimation){(e=r[i]).svgatorAnimation=!0;break}if(!e)return null;var u=t.animations.map((function(t){return it(e,t)})).filter((function(t){return!!t}));return u.length?{element:e,animations:u,animationSettings:t.animationSettings,options:t.options||void 0}:null}(t,r))?{el:t.element,options:t.options||{},player:new this(t.animations,t.animationSettings,t.options)}:null}},{key:"push",value:function(t){return this.build(t)}},{key:"init",value:function(){var t=this,n=window.__SVGATOR_PLAYER__&&window.__SVGATOR_PLAYER__["7c8cb2ed"];Array.isArray(n)&&n.splice(0).forEach((function(n){return t.build(n)}))}}]),t}();function st(t){return p(t)+""}function ct(t){var n=arguments.length>1&&void 0!==arguments[1]?arguments[1]:" ";return t&&t.length?t.map(st).join(n):""}function ht(t){return st(t.x)+","+st(t.y)}function vt(t){if(!t)return"transparent";if(null==t.a||t.a>=1){var n=function(t){return 1===(t=parseInt(t).toString(16)).length?"0"+t:t},r=function(t){return t.charAt(0)===t.charAt(1)},e=n(t.r),i=n(t.g),u=n(t.b);return r(e)&&r(i)&&r(u)&&(e=e.charAt(0),i=i.charAt(0),u=u.charAt(0)),"#"+e+i+u}return"rgba("+t.r+","+t.g+","+t.b+","+t.a+")"}function yt(t){return t?"url(#"+t+")":"none"}!function(){for(var t=0,n=["ms","moz","webkit","o"],r=0;r<n.length&&!window.requestAnimationFrame;++r)window.requestAnimationFrame=window[n[r]+"RequestAnimationFrame"],window.cancelAnimationFrame=window[n[r]+"CancelAnimationFrame"]||window[n[r]+"CancelRequestAnimationFrame"];window.requestAnimationFrame||(window.requestAnimationFrame=function(n){var r=Date.now(),e=Math.max(0,16-(r-t)),i=window.setTimeout((function(){n(r+e)}),e);return t=r+e,i},window.cancelAnimationFrame=window.clearTimeout)}();var gt={f:null,i:D,u:function(t,n){return function(r){var e=n(r);t.setAttribute("rx",st(e.x)),t.setAttribute("ry",st(e.y))}}},pt={f:null,i:function(t,n,r){return 0===t?n:1===t?r:{width:q(t,n.width,r.width),height:q(t,n.height,r.height)}},u:function(t,n){return function(r){var e=n(r);t.setAttribute("width",st(e.width)),t.setAttribute("height",st(e.height))}}};Object.freeze({M:2,L:2,Z:0,H:1,V:1,C:6,Q:4,T:2,S:4,A:7});var dt={},mt=null;function bt(t){var n=function(){if(mt)return mt;if("object"!==("undefined"==typeof document?"undefined":r(document))||!document.createElementNS)return{};var t=document.createElementNS("http://www.w3.org/2000/svg","svg");return t&&t.style?(t.style.position="absolute",t.style.opacity="0.01",t.style.zIndex="-9999",t.style.left="-9999px",t.style.width="1px",t.style.height="1px",mt={svg:t}):{}}().svg;if(!n)return function(t){return null};var e=document.createElementNS(n.namespaceURI,"path");e.setAttributeNS(null,"d",t),e.setAttributeNS(null,"fill","none"),e.setAttributeNS(null,"stroke","none"),n.appendChild(e);var i=e.getTotalLength();return function(t){var n=e.getPointAtLength(i*t);return{x:n.x,y:n.y}}}function At(t){return dt[t]?dt[t]:dt[t]=bt(t)}function wt(t,n,r,e){if(!t||!e)return!1;var i=["M",t.x,t.y];if(n&&r&&(i.push("C"),i.push(n.x),i.push(n.y),i.push(r.x),i.push(r.y)),n?!r:r){var u=n||r;i.push("Q"),i.push(u.x),i.push(u.y)}return n||r||i.push("L"),i.push(e.x),i.push(e.y),i.join(" ")}function xt(t,n,r,e){var i=arguments.length>4&&void 0!==arguments[4]?arguments[4]:1,u=wt(t,n,r,e),o=At(u);try{return o(i)}catch(t){return null}}function kt(t,n,r){return t+(n-t)*r}function _t(t,n,r){var e=arguments.length>3&&void 0!==arguments[3]&&arguments[3],i={x:kt(t.x,n.x,r),y:kt(t.y,n.y,r)};return e&&(i.a=St(t,n)),i}function St(t,n){return Math.atan2(n.y-t.y,n.x-t.x)}function Ot(t,n,r,e){var i=1-e;return i*i*t+2*i*e*n+e*e*r}function jt(t,n,r,e){return 2*(1-e)*(n-t)+2*e*(r-n)}function Et(t,n,r,e){var i=arguments.length>4&&void 0!==arguments[4]&&arguments[4],u=xt(t,n,null,r,e);return u||(u={x:Ot(t.x,n.x,r.x,e),y:Ot(t.y,n.y,r.y,e)}),i&&(u.a=Mt(t,n,r,e)),u}function Mt(t,n,r,e){return Math.atan2(jt(t.y,n.y,r.y,e),jt(t.x,n.x,r.x,e))}function Pt(t,n,r,e,i){var u=i*i;return i*u*(e-t+3*(n-r))+3*u*(t+r-2*n)+3*i*(n-t)+t}function It(t,n,r,e,i){var u=1-i;return 3*(u*u*(n-t)+2*u*i*(r-n)+i*i*(e-r))}function Rt(t,n,r,e,i){var u=arguments.length>5&&void 0!==arguments[5]&&arguments[5],o=xt(t,n,r,e,i);return o||(o={x:Pt(t.x,n.x,r.x,e.x,i),y:Pt(t.y,n.y,r.y,e.y,i)}),u&&(o.a=Bt(t,n,r,e,i)),o}function Bt(t,n,r,e,i){return Math.atan2(It(t.y,n.y,r.y,e.y,i),It(t.x,n.x,r.x,e.x,i))}function Ft(t,n,r){var e=arguments.length>3&&void 0!==arguments[3]&&arguments[3];if(Tt(n)){if(qt(r))return Et(n,r.start,r,t,e)}else if(Tt(r)){if(n.end)return Et(n,n.end,r,t,e)}else{if(n.end)return r.start?Rt(n,n.end,r.start,r,t,e):Et(n,n.end,r,t,e);if(r.start)return Et(n,r.start,r,t,e)}return _t(n,r,t,e)}function Nt(t,n,r){var e=Ft(t,n,r,!0);return e.a=function(t){return arguments.length>1&&void 0!==arguments[1]&&arguments[1]?t+Math.PI:t}(e.a)/m,e}function Tt(t){return!t.type||"corner"===t.type}function qt(t){return null!=t.start&&!Tt(t)}var Lt=new F;var Ct={f:function(t){return t?t.join(" "):""},i:function(t,n,e){if(0===t)return n;if(1===t)return e;var i=n.length;if(i!==e.length)return N(t,n,e);for(var u,o=new Array(i),a=0;a<i;a++){if((u=r(n[a]))!==r(e[a]))return N(t,n,e);if("number"===u)o[a]=T(t,n[a],e[a]);else{if(n[a]!==e[a])return N(t,n,e);o[a]=n[a]}}return o}},Dt={f:null,i:G,u:function(t,n){return function(r){var e=n(r);t.setAttribute("x1",st(e[0])),t.setAttribute("y1",st(e[1])),t.setAttribute("x2",st(e[2])),t.setAttribute("y2",st(e[3]))}}},Vt={f:st,i:T},zt={f:st,i:L},Gt={f:function(t){var n=arguments.length>1&&void 0!==arguments[1]?arguments[1]:" ";return t&&t.length>0&&(t=t.map((function(t){return p(t,4)}))),ct(t,n)},i:function(t,n,r){var e,i,u,o=n.length,a=r.length;if(o!==a)if(0===o)n=Y(o=a,0);else if(0===a)a=o,r=Y(o,0);else{var l=(u=(e=o)*(i=a)/function(t,n){for(var r;n;)r=n,n=t%n,t=r;return t||1}(e,i))<0?-u:u;n=$(n,Math.floor(l/o)),r=$(r,Math.floor(l/a)),o=a=l}for(var f=[],s=0;s<o;s++)f.push(p(q(t,n[s],r[s])));return f}};function Yt(t,n,r){return t.map((function(t){return function(t,n,r){var e=t.v;if(!e||"g"!==e.t||e.s||!e.v||!e.r)return t;var i=r.getElementById(e.r),u=i&&i.querySelectorAll("stop")||[];return e.s=e.v.map((function(t,n){var r=u[n]&&u[n].getAttribute("offset");return{c:t,o:r=p(parseInt(r)/100)}})),delete e.v,t}(t,0,r)}))}var $t={gt:"gradientTransform",c:{x:"cx",y:"cy"},rd:"r",f:{x:"x1",y:"y1"},to:{x:"x2",y:"y2"}};function Ut(t,n,e,i,u,o,a,l){return Yt(t,0,l),n=function(t,n,r){for(var e,i,u,o=t.length-1,a={},l=0;l<=o;l++)(e=t[l]).e&&(e.e=n(e.e)),e.v&&"g"===(i=e.v).t&&i.r&&(u=r.getElementById(i.r))&&(a[i.r]={e:u,s:u.querySelectorAll("stop")});return a}(t,i,l),function(i){var u=e(i,t,Qt);if(!u)return"none";if("c"===u.t)return vt(u.v);if("g"===u.t){if(!n[u.r])return yt(u.r);var o=n[u.r];return function(t,n){for(var r=t.s,e=r.length;e<n.length;e++){var i=r[r.length-1].cloneNode();i.id=Zt(i.id),t.e.appendChild(i),r=t.s=t.e.querySelectorAll("stop")}for(var u=0,o=r.length,a=n.length-1;u<o;u++)r[u].setAttribute("stop-color",vt(n[Math.min(u,a)].c)),r[u].setAttribute("offset",n[Math.min(u,a)].o)}(o,u.s),Object.keys($t).forEach((function(t){if(void 0!==u[t])if("object"!==r($t[t])){var n,e="gt"===t?(n=u[t],Array.isArray(n)?"matrix("+n.join(" ")+")":""):u[t],i=$t[t];o.e.setAttribute(i,e)}else Object.keys($t[t]).forEach((function(n){if(void 0!==u[t][n]){var r=u[t][n],e=$t[t][n];o.e.setAttribute(e,r)}}))})),yt(u.r)}return"none"}}function Qt(t,r,e){if(0===t)return r;if(1===t)return e;if(r&&e){var i=r.t;if(i===e.t)switch(r.t){case"c":return{t:i,v:z(t,r.v,e.v)};case"g":if(r.r===e.r){var u={t:i,s:Ht(t,r.s,e.s),r:r.r};return r.gt&&e.gt&&(u.gt=G(t,r.gt,e.gt)),r.c?(u.c=C(t,r.c,e.c),u.rd=q(t,r.rd,e.rd)):r.f&&(u.f=C(t,r.f,e.f),u.to=C(t,r.to,e.to)),u}}if("c"===r.t&&"g"===e.t||"c"===e.t&&"g"===r.t){var o="c"===r.t?r:e,a="g"===r.t?n({},r):n({},e),l=a.s.map((function(t){return{c:o.v,o:t.o}}));return a.s="c"===r.t?Ht(t,l,a.s):Ht(t,a.s,l),a}}return N(t,r,e)}function Ht(t,n,r){if(n.length===r.length)return n.map((function(n,e){return Jt(t,n,r[e])}));for(var e=Math.max(n.length,r.length),i=[],u=0;u<e;u++){var o=Jt(t,n[Math.min(u,n.length-1)],r[Math.min(u,r.length-1)]);i.push(o)}return i}function Jt(t,n,r){return{o:L(t,n.o,r.o||0),c:z(t,n.c,r.c||{})}}function Zt(t){return t.replace(/-fill-([0-9]+)$/,(function(t,n){return"-fill-"+(+n+1)}))}var Kt={blur:D,brightness:q,contrast:q,"drop-shadow":function(t,n,r){return 0===t?n:1===t?r:{blur:D(t,n.blur,r.blur),offset:C(t,n.offset,r.offset),color:z(t,n.color,r.color)}},grayscale:q,"hue-rotate":T,invert:q,opacity:q,saturate:q,sepia:q};function Wt(t,n,r){if(0===t)return n;if(1===t)return r;var e=n.length;if(e!==r.length)return N(t,n,r);for(var i,u=[],o=0;o<e;o++){if(n[o].type!==r[o].type)return n;if(!(i=Kt[n[o].type]))return N(t,n,r);u.push({type:n.type,value:i(t,n[o].value,r[o].value)})}return u}var Xt={blur:function(t){return t?function(n){t.setAttribute("stdDeviation",ht(n))}:null},brightness:function(t,n,r){return(t=nn(r,n))?function(n){n=st(n),t.map((function(t){return t.setAttribute("slope",n)}))}:null},contrast:function(t,n,r){return(t=nn(r,n))?function(n){var r=st((1-n)/2);n=st(n),t.map((function(t){t.setAttribute("slope",n),t.setAttribute("intercept",r)}))}:null},"drop-shadow":function(t,n,r){var e=r.getElementById(n+"-blur");if(!e)return null;var i=r.getElementById(n+"-offset");if(!i)return null;var u=r.getElementById(n+"-flood");return u?function(t){e.setAttribute("stdDeviation",ht(t.blur)),i.setAttribute("dx",st(t.offset.x)),i.setAttribute("dy",st(t.offset.y)),u.setAttribute("flood-color",vt(t.color))}:null},grayscale:function(t){return t?function(n){t.setAttribute("values",ct(function(t){return[.2126+.7874*(t=1-t),.7152-.7152*t,.0722-.0722*t,0,0,.2126-.2126*t,.7152+.2848*t,.0722-.0722*t,0,0,.2126-.2126*t,.7152-.7152*t,.0722+.9278*t,0,0,0,0,0,1,0]}(n)))}:null},"hue-rotate":function(t){return t?function(n){return t.setAttribute("values",st(n))}:null},invert:function(t,n,r){return(t=nn(r,n))?function(n){n=st(n)+" "+st(1-n),t.map((function(t){return t.setAttribute("tableValues",n)}))}:null},opacity:function(t,n,r){return(t=r.getElementById(n+"-A"))?function(n){return t.setAttribute("tableValues","0 "+st(n))}:null},saturate:function(t){return t?function(n){return t.setAttribute("values",st(n))}:null},sepia:function(t){return t?function(n){return t.setAttribute("values",ct(function(t){return[.393+.607*(t=1-t),.769-.769*t,.189-.189*t,0,0,.349-.349*t,.686+.314*t,.168-.168*t,0,0,.272-.272*t,.534-.534*t,.131+.869*t,0,0,0,0,0,1,0]}(n)))}:null}};var tn=["R","G","B"];function nn(t,n){var r=tn.map((function(r){return t.getElementById(n+"-"+r)||null}));return-1!==r.indexOf(null)?null:r}var rn={fill:Ut,"fill-opacity":zt,stroke:Ut,"stroke-opacity":zt,"stroke-width":Vt,"stroke-dashoffset":{f:st,i:T},"stroke-dasharray":Gt,opacity:zt,transform:function(t,n,e,i){if(!(t=function(t,n){if(!t||"object"!==r(t))return null;var e=!1;for(var i in t)t.hasOwnProperty(i)&&(t[i]&&t[i].length?(t[i].forEach((function(t){t.e&&(t.e=n(t.e))})),e=!0):delete t[i]);return e?t:null}(t,i)))return null;var u=function(r,i,u){var o=arguments.length>3&&void 0!==arguments[3]?arguments[3]:null;return t[r]?e(i,t[r],u):n&&n[r]?n[r]:o};return n&&n.a&&t.o?function(n){var r=e(n,t.o,Nt);return Lt.recomposeSelf(r,u("r",n,T,0)+r.a,u("k",n,C),u("s",n,C),u("t",n,C)).toString()}:function(t){return Lt.recomposeSelf(u("o",t,Ft,null),u("r",t,T,0),u("k",t,C),u("s",t,C),u("t",t,C)).toString()}},"#filter":function(t,n,r,e,i,u,o,a){if(!n.items||!t||!t.length)return null;var l=function(t,n){var r=(t=t.map((function(t){return t&&Xt[t[0]]?(n.getElementById(t[1]),Xt[t[0]](n.getElementById(t[1]),t[1],n)):null}))).length;return function(n){for(var e=0;e<r;e++)t[e]&&t[e](n[e].value)}}(n.items,a);return l?(t=function(t,n){return t.map((function(t){return t.e=n(t.e),t}))}(t,e),function(n){l(r(n,t,Wt))}):null},"#line":Dt,points:{f:ct,i:G},d:Ct,r:Vt,"#size":pt,"#radius":gt,_:function(t,n){if(Array.isArray(t))for(var r=0;r<t.length;r++)this[t[r]]=n;else this[t]=n}},en=function(t){!function(t,n){if("function"!=typeof n&&null!==n)throw new TypeError("Super expression must either be null or a function");t.prototype=Object.create(n&&n.prototype,{constructor:{value:t,writable:!0,configurable:!0}}),n&&l(t,n)}(o,t);var n,r,i=(n=o,r=f(),function(){var t,e=a(n);if(r){var i=a(this).constructor;t=Reflect.construct(e,arguments,i)}else t=e.apply(this,arguments);return c(this,t)});function o(){return e(this,o),i.apply(this,arguments)}return u(o,null,[{key:"build",value:function(t){var n=h(a(o),"build",this).call(this,t,rn);if(!n)return null;n.el,n.options,function(t,n,r){t.play()}(n.player)}}]),o}(ft);return en.init(),en}));
(function(s,i,o,w,a,b){w[o]=w[o]||{};w[o][s]=w[o][s]||[];w[o][s].push(i);})('7c8cb2ed',{"root":"eaMlBJ9wAzF1","animations":[{"elements":{"eaMlBJ9wAzF22":{"d":[{"t":0,"v":["M",500,700,"C",415,700,370,660,320,600,"C",270,540,280,440,280,440,"C",280,440,220,420,220,360,"C",220,300,400,80,500,80,"C",600,80,780,300,780,360,"C",780,420,720,440,720,440,"C",720,440,735,540,680,600,"C",625,660,585,700,500,700,"Z"]},{"t":300,"v":["M",500,700,"C",415,700,370,660,320,600,"C",270,540,270,445,270,445,"C",270,445,210,425,210,365,"C",210,305,400,90,500,90,"C",600,90,790,305,790,365,"C",790,425,730,445,730,445,"C",730,445,735,540,680,600,"C",625,660,585,700,500,700,"Z"]},{"t":1100,"v":["M",500,700,"C",415,700,370,660,320,600,"C",270,540,270,445,270,445,"C",270,445,210,425,210,365,"C",210,305,400,90,500,90,"C",600,90,790,305,790,365,"C",790,425,730,445,730,445,"C",730,445,735,540,680,600,"C",625,660,585,700,500,700,"Z"]},{"t":1400,"v":["M",500,700,"C",415,700,370,660,320,600,"C",270,540,280,440,280,440,"C",280,440,220,420,220,360,"C",220,300,400,80,500,80,"C",600,80,780,300,780,360,"C",780,420,720,440,720,440,"C",720,440,735,540,680,600,"C",625,660,585,700,500,700,"Z"]},{"t":15000,"v":["M",500,700,"C",415,700,370,660,320,600,"C",270,540,280,440,280,440,"C",280,440,220,420,220,360,"C",220,300,400,80,500,80,"C",600,80,780,300,780,360,"C",780,420,720,440,720,440,"C",720,440,735,540,680,600,"C",625,660,585,700,500,700,"Z"]}]},"eaMlBJ9wAzF23":{"d":[{"t":0,"v":["M",360,560,"C",280,640,160,560,160,620,"C",160,700,275.279,700,320,700,"C",360,700,420,640,440,620,"C",400,600,380,600,360,560,"Z"]},{"t":700,"v":["M",360,560,"C",280,640,168,544,168,604,"C",168,684,275.279,700,320,700,"C",360,700,420,640,440,620,"C",400,600,380,600,360,560,"Z"]},{"t":1400,"v":["M",360,560,"C",280,640,160,560,160,620,"C",160,700,275.279,700,320,700,"C",360,700,420,640,440,620,"C",400,600,380,600,360,560,"Z"]},{"t":15000,"v":["M",360,560,"C",280,640,160,560,160,620,"C",160,700,275.279,700,320,700,"C",360,700,420,640,440,620,"C",400,600,380,600,360,560,"Z"]}]},"eaMlBJ9wAzF24":{"d":[{"t":0,"v":["M",460,620,"C",420,600,400,600,380,580,"C",260,640,247.237797,829.651917,320,829.651917,"C",383.094,829.651917,360,700,460,620,"Z"]},{"t":700,"v":["M",460,620,"C",420,600,400,600,380,580,"C",260,640,233.171108,835.164627,305.933311,835.164627,"C",369.027311,835.164627,360,700,460,620,"Z"]},{"t":1400,"v":["M",460,620,"C",420,600,400,600,380,580,"C",260,640,247.237797,829.651917,320,829.651917,"C",383.094,829.651917,360,700,460,620,"Z"]},{"t":15000,"v":["M",460,620,"C",420,600,400,600,380,580,"C",260,640,247.237797,829.651917,320,829.651917,"C",383.094,829.651917,360,700,460,620,"Z"]}]},"eaMlBJ9wAzF25":{"d":[{"t":0,"v":["M",408.906001,623.656,"C",448.906001,643.656,480,656.25,520,656.25,"C",440,736.25,540,860,460,860,"C",380,860,368.906001,663.656,408.906001,623.656,"Z"]},{"t":700,"v":["M",408.906001,623.656,"C",448.906001,643.656,480,656.25,520,656.25,"C",440,736.25,554.211706,865.590918,467.105853,865.590918,"C",380,865.590918,368.906001,663.656,408.906001,623.656,"Z"]},{"t":1400,"v":["M",408.906001,623.656,"C",448.906001,643.656,480,656.25,520,656.25,"C",440,736.25,540,860,460,860,"C",380,860,368.906001,663.656,408.906001,623.656,"Z"]},{"t":15000,"v":["M",408.906001,623.656,"C",448.906001,643.656,480,656.25,520,656.25,"C",440,736.25,540,860,460,860,"C",380,860,368.906001,663.656,408.906001,623.656,"Z"]}]},"eaMlBJ9wAzF26":{"d":[{"t":0,"v":["M",490.62047,656.250001,"C",550.62047,656.250001,548.307214,640.000001,580,620,"C",620,700,620,860,540,860,"C",472.375,860,550.62047,736.250001,490.62047,656.250001,"Z"]},{"t":700,"v":["M",480,620,"C",540,620,540,620,580,620,"C",620,717.500001,606.124939,858.912016,526.124939,858.912016,"C",466.124939,858.912016,550.886143,700,480,620,"Z"]},{"t":1400,"v":["M",490.62047,656.250001,"C",550.62047,656.250001,548.307214,640.000001,580,620,"C",620,700,620,860,540,860,"C",472.375,860,550.62047,736.250001,490.62047,656.250001,"Z"]},{"t":15000,"v":["M",490.62047,656.250001,"C",550.62047,656.250001,548.307214,640.000001,580,620,"C",620,700,620,860,540,860,"C",472.375,860,550.62047,736.250001,490.62047,656.250001,"Z"]}]},"eaMlBJ9wAzF27":{"d":[{"t":0,"v":["M",560,640,"C",620,620,620,620,660,600,"C",740,720,702.019897,840,640,840,"C",589.812,829.651917,658.966,720,560,640,"Z"]},{"t":700,"v":["M",560,640,"C",620,620,620,620,660,600,"C",740,720,728,833,668,833,"C",623.279,833,640,720,560,640,"Z"]},{"t":1400,"v":["M",560,640,"C",620,620,620,620,660,600,"C",740,720,700,840,640,840,"C",595.279,840,640,720,560,640,"Z"]},{"t":15000,"v":["M",560,640,"C",620,620,620,620,660,600,"C",740,720,700,840,640,840,"C",595.279,840,640,720,560,640,"Z"]}]},"eaMlBJ9wAzF28":{"d":[{"t":300,"v":["M",600,620,"C",740,820,892.563946,592.534,812.563946,592.534,"C",772.563946,592.534,720,640,660,580,"C",640,600,620,620,600,620,"Z"]},{"t":500,"v":["M",600,620,"C",780,798.240229,827.165951,520,747.165951,520,"C",707.165951,520,720,640,660,580,"C",640,600,620,620,600,620,"Z"]},{"t":700,"v":["M",600,620,"C",740,820,860,574.432129,780,574.432129,"C",740,574.432129,720,640,660,580,"C",640,600,620,620,600,620,"Z"]},{"t":900,"v":["M",600,620,"C",780,798.240229,827.165951,520,747.165951,520,"C",707.165951,520,720,640,660,580,"C",640,600,620,620,600,620,"Z"]},{"t":1100,"v":["M",600,620,"C",740,820,892.563946,592.534,812.563946,592.534,"C",772.563946,592.534,720,640,660,580,"C",640,600,620,620,600,620,"Z"]}]},"eaMlBJ9wAzF31":{"d":[{"t":0,"v":["M",392,520,"C",392,508.954,400.5,492,420,492,"C",439.5,492,448,508.954,448,520,"C",448,531.046,439.5,548.25,420,548,"C",400.5,547.75,392,531.046,392,520,"Z"]},{"t":300,"v":["M",381,522,"C",381,510.954,408.954,500,420,500,"C",431.046,500,459,510.954,459,522,"C",459,551.281,431.046,535.844,420,535.844,"C",408.954,535.844,381,551.281,381,522,"Z"]},{"t":1100,"v":["M",381,522,"C",381,510.954,408.954,500,420,500,"C",431.046,500,459,510.954,459,522,"C",459,551.281,431.046,535.844,420,535.844,"C",408.954,535.844,381,551.281,381,522,"Z"]},{"t":1400,"v":["M",392,520,"C",392,508.954,400.5,492,420,492,"C",439.5,492,448,508.954,448,520,"C",448,531.046,439.5,548.25,420,548,"C",400.5,547.75,392,531.046,392,520,"Z"]},{"t":15000,"v":["M",392,520,"C",392,508.954,400.5,492,420,492,"C",439.5,492,448,508.954,448,520,"C",448,531.046,439.5,548.25,420,548,"C",400.5,547.75,392,531.046,392,520,"Z"]}]},"eaMlBJ9wAzF32":{"d":[{"t":0,"v":["M",552,520,"C",552,508.954,560,492,580,492,"C",600,492,608,508.954,608,520,"C",608,531.046,600,547.99762,580,548,"C",560,548.00238,552,531.046,552,520,"Z"]},{"t":300,"v":["M",541,522,"C",541,510.954,568.954,500,580,500,"C",591.046,500,619,510.954,619,522,"C",619,551.281,591.046,535.844,580,535.844,"C",568.954,535.844,541,551.281,541,522,"Z"]},{"t":1100,"v":["M",541,522,"C",541,510.954,568.954,500,580,500,"C",591.046,500,619,510.954,619,522,"C",619,551.281,591.046,535.844,580,535.844,"C",568.954,535.844,541,551.281,541,522,"Z"]},{"t":1400,"v":["M",552,520,"C",552,508.954,560,492,580,492,"C",600,492,608,508.954,608,520,"C",608,531.046,600,547.99762,580,548,"C",560,548.00238,552,531.046,552,520,"Z"]},{"t":15000,"v":["M",552,520,"C",552,508.954,560,492,580,492,"C",600,492,608,508.954,608,520,"C",608,531.046,600,547.99762,580,548,"C",560,548.00238,552,531.046,552,520,"Z"]}]},"eaMlBJ9wAzF33":{"d":[{"t":0,"v":["M",466,606,"C",466,589.431,472.386,602,500,602,"C",527.614,602,534,588.431,534,605,"C",534,621.569,520,633.312,500,634,"C",480,634.688,466,622.569,466,606,"Z"]},{"t":300,"v":["M",460,600,"C",460,583.431,472.386,590,500,590,"C",527.614,590,540,582.431,540,599,"C",540,615.569,527.614,640,500,640,"C",472.386,640,460,616.569,460,600,"Z"]},{"t":1100,"v":["M",460,600,"C",460,583.431,472.386,590,500,590,"C",527.614,590,540,582.431,540,599,"C",540,615.569,527.614,640,500,640,"C",472.386,640,460,616.569,460,600,"Z"]},{"t":1400,"v":["M",464,604,"C",464,587.431,472.386,604,500,604,"C",527.614,604,536,586.431,536,603,"C",536,619.569,520,633.312,500,634,"C",480,634.688,464,620.569,464,604,"Z"]},{"t":15000,"v":["M",464,604,"C",464,587.431,472.386,604,500,604,"C",527.614,604,536,586.431,536,603,"C",536,619.569,520,633.312,500,634,"C",480,634.688,464,620.569,464,604,"Z"]}]}},"s":"MDA1VNGIzNWE5Y2FkYWE5OWFjYTFhBN2E2NWE3MjY5NmQ2ODY4Njg2TNDVhOWNhMWFhOWQ5YmFjYTFhPN2E2NWFZNzJLNjk2NDVhYTFTDYWM5ZGFhOTlhY2ExT2E3YTZhGYjVhNzI2ODY0NWE5ZWExYTRhNNDVhNzI2OU02NDVhOTlhNGFjNOWRhYWE2OTlhYzlkVFE1YTcyBSDllOTlhNGFiOWQ2NDVhYWJhPODlkOWQ5YzVhNzJNNjliNQ|"}],"options":"MDAxOMDhmUzM2RDg3ODg3NTg2Rjg4SMzY0ZTM2ODA4Mzc1NzgzNjkxAQw|"},'__SVGATOR_PLAYER__',window)]]></script></svg>